<?xml version="1.0" encoding="UTF-8"?>
<svg id="uuid-664a0c09-9587-42ee-8d59-b0dc3ea6dcd9" data-name="Capa 2" xmlns="http://www.w3.org/2000/svg" viewBox="0 0 393.44 204.38">
  <g id="uuid-44e825e8-0f87-4deb-a5c5-92aeb6fa06d1" data-name="Capa 1">
    <g>
      <path d="M0,204.38V0h26.53v74.35c13.1-12.45,30.13-19.98,49.13-20.64,47.82-1.96,71.08,34.06,71.08,76.32v74.35h-26.53v-74.35c0-27.19-11.79-52.73-44.55-51.75-32.43.98-49.13,27.18-49.13,41.27l-.33,84.83H0Z" fill="#dbd6d1"/>
      <path d="M269.24,118.57l-34.06,85.49h-28.17l-59.28-148.37h28.5l44.87,121.84,44.87-121.84h28.5l-11.46,28.5,34.72,93.35,44.87-121.84h28.17l-58.96,148.37h-28.5l-34.06-85.49Z" fill="#dbd6d1"/>
      <circle cx="159.34" cy="17.03" r="17.03" fill="#e5c761"/>
      <circle cx="376.41" cy="17.03" r="17.03" fill="#e5c761"/>
    </g>
  </g>
</svg>